<svg width="320" height="320" viewBox="0 0 320 320" fill="none" xmlns="http://www.w3.org/2000/svg">
  <rect width="320" height="320" fill="#000000"/>

  <!-- D -->
  <path d="M 40 80 L 40 240 L 70 240 L 70 160 L 90 140 L 90 180 L 105 195 L 105 125 L 90 110 L 90 100 L 70 80 Z" fill="white"/>

  <!-- M -->
  <path d="M 125 80 L 125 240 L 155 240 L 155 140 L 160 135 L 160 240 L 190 240 L 190 135 L 195 140 L 195 240 L 225 240 L 225 80 L 195 80 L 175 120 L 155 80 Z" fill="white"/>

  <!-- R -->
  <path d="M 245 80 L 245 240 L 275 240 L 275 170 L 290 155 L 305 170 L 305 240 L 280 240 L 280 180 L 275 175 L 275 125 L 290 110 L 290 100 L 275 85 L 275 80 Z" fill="white"/>

  <!-- Geometric reconstruction of the angular DMR monogram -->
  <g transform="translate(40, 60)">
    <!-- Left D section -->
    <polygon points="0,20 30,20 30,200 0,200" fill="white"/>
    <polygon points="35,25 55,25 55,70 35,90" fill="white"/>

    <!-- Middle M section -->
    <polygon points="90,20 120,20 120,200 90,200" fill="white"/>
    <polygon points="130,70 160,20 190,70 190,200 160,200 160,100 145,120 130,100" fill="white"/>

    <!-- Right R section -->
    <polygon points="200,20 230,20 230,200 200,200" fill="white"/>
    <polygon points="235,25 255,25 255,70 235,90" fill="white"/>
    <polygon points="240,120 265,155 240,190" fill="white"/>
  </g>
</svg>
